<svg width="140" height="34" viewBox="0 0 140 34" fill="none" xmlns="http://www.w3.org/2000/svg">
<g clip-path="url(#clip0_7_2452)">
<path d="M41.2068 24.0094H51.127V21.024H44.7326V9.77911H41.2068V24.0094Z" fill="#464646"/>
<path d="M57.0046 22.019C55.5903 22.019 54.8532 20.7851 54.8532 18.9341C54.8532 17.0832 55.5903 15.8294 57.0046 15.8294C58.4189 15.8294 59.1759 17.0832 59.1759 18.9341C59.1759 20.7851 58.4189 22.019 57.0046 22.019ZM57.0245 24.3277C60.3113 24.3277 62.4627 21.9991 62.4627 18.9341C62.4627 15.8692 60.3113 13.5406 57.0245 13.5406C53.7576 13.5406 51.5664 15.8692 51.5664 18.9341C51.5664 21.9991 53.7576 24.3277 57.0245 24.3277Z" fill="#464646"/>
<path d="M68.1515 27.532C69.6654 27.532 71.0001 27.1937 71.8965 26.3976C72.7132 25.6612 73.2511 24.5466 73.2511 23.0142V13.8192H70.1435V14.9139H70.1037C69.5061 14.0581 68.5898 13.5207 67.2352 13.5207C64.7054 13.5207 62.9524 15.6304 62.9524 18.6157C62.9524 21.7404 65.0838 23.452 67.3746 23.452C68.6097 23.452 69.3866 22.9544 69.9842 22.2778H70.0638V23.2928C70.0638 24.5267 69.4862 25.2432 68.1117 25.2432C67.036 25.2432 66.4982 24.7855 66.3189 24.2481H63.1715C63.4902 26.3777 65.3428 27.532 68.1515 27.532ZM68.1316 21.0438C66.9165 21.0438 66.1197 20.0487 66.1197 18.5162C66.1197 16.9638 66.9165 15.9687 68.1316 15.9687C69.4862 15.9687 70.2033 17.123 70.2033 18.4963C70.2033 19.9293 69.5459 21.0438 68.1316 21.0438Z" fill="#464646"/>
<path d="M79.6408 22.019C78.2265 22.019 77.4894 20.7851 77.4894 18.9341C77.4894 17.0832 78.2265 15.8294 79.6408 15.8294C81.0551 15.8294 81.8121 17.0832 81.8121 18.9341C81.8121 20.7851 81.0551 22.019 79.6408 22.019ZM79.6607 24.3277C82.9475 24.3277 85.0985 21.9991 85.0985 18.9341C85.0985 15.8692 82.9475 13.5406 79.6607 13.5406C76.3938 13.5406 74.2026 15.8692 74.2026 18.9341C74.2026 21.9991 76.3938 24.3277 79.6607 24.3277Z" fill="#464646"/>
<path d="M86.0471 24.0094H89.2941V13.8193H86.0471V24.0094ZM86.0471 12.4062H89.2941V9.77911H86.0471V12.4062Z" fill="#464646"/>
<path d="M90.7026 27.3728H93.9496V22.9544H93.9894C94.6269 23.8103 95.5631 24.3277 96.8778 24.3277C99.5471 24.3277 101.32 22.2181 101.32 18.9143C101.32 15.8493 99.6666 13.5207 96.9575 13.5207C95.5631 13.5207 94.5671 14.1377 93.8699 15.0532H93.8102V13.8192H90.7026V27.3728ZM96.0412 21.82C94.6468 21.82 93.85 20.6856 93.85 19.0337C93.85 17.3818 94.5671 16.1279 95.9814 16.1279C97.3758 16.1279 98.0332 17.2823 98.0332 19.0337C98.0332 20.7652 97.2762 21.82 96.0412 21.82Z" fill="#464646"/>
<path d="M106.606 24.3277C109.276 24.3277 111.248 23.1734 111.248 20.9443C111.248 18.3371 109.136 17.8793 107.343 17.5808C106.049 17.342 104.893 17.2424 104.893 16.526C104.893 15.8891 105.511 15.5905 106.308 15.5905C107.204 15.5905 107.821 15.8692 107.941 16.7847H110.929C110.77 14.7745 109.216 13.5207 106.327 13.5207C103.917 13.5207 101.925 14.6352 101.925 16.7847C101.925 19.173 103.818 19.6506 105.59 19.9492C106.945 20.188 108.18 20.2875 108.18 21.203C108.18 21.8598 107.562 22.2181 106.586 22.2181C105.511 22.2181 104.833 21.7205 104.714 20.7055H101.646C101.746 22.9544 103.618 24.3277 106.606 24.3277Z" fill="#464646"/>
<path d="M115.658 24.3079C117.073 24.3079 117.969 23.7506 118.706 22.7555H118.766V24.0093H121.873V13.8193H118.626V19.5114C118.626 20.7254 117.949 21.5613 116.834 21.5613C115.798 21.5613 115.3 20.9443 115.3 19.8298V13.8193H112.073V20.5065C112.073 22.7754 113.308 24.3079 115.658 24.3079Z" fill="#464646"/>
<path d="M123.286 24.0093H126.533V18.2973C126.533 17.0832 127.131 16.2274 128.147 16.2274C129.123 16.2274 129.581 16.8643 129.581 17.9589V24.0093H132.828V18.2973C132.828 17.0832 133.406 16.2274 134.441 16.2274C135.417 16.2274 135.876 16.8643 135.876 17.9589V24.0093H139.123V17.3818C139.123 15.093 137.967 13.5207 135.656 13.5207C134.342 13.5207 133.246 14.078 132.449 15.3119H132.41C131.892 14.2173 130.876 13.5207 129.541 13.5207C128.067 13.5207 127.091 14.2173 126.453 15.2721H126.394V13.8192H123.286V24.0093Z" fill="#464646"/>
<path d="M21.3966 1.63937L18.1323 0.765442L15.3813 11.0231L12.8977 1.76242L9.6332 2.63635L12.3166 12.6419L5.6329 5.96411L3.24316 8.35173L10.5743 15.6765L1.44453 13.2323L0.569824 16.4938L10.5453 19.1644C10.4311 18.6722 10.3707 18.1594 10.3707 17.6325C10.3707 13.9028 13.3968 10.8793 17.1299 10.8793C20.8629 10.8793 23.8891 13.9028 23.8891 17.6325C23.8891 18.156 23.8294 18.6657 23.7166 19.1549L32.7824 21.582L33.6571 18.3204L23.642 15.6393L32.7724 13.1949L31.8977 9.93339L21.8829 12.6144L28.5666 5.93669L26.1769 3.54907L18.9474 10.7722L21.3966 1.63937Z" fill="#464646"/>
<path d="M23.7079 19.1929C23.428 20.3751 22.8371 21.4372 22.0264 22.2881L28.5942 28.8502L30.9839 26.4625L23.7079 19.1929Z" fill="#464646"/>
<path d="M21.9597 22.3568C21.1392 23.1941 20.1023 23.8189 18.9395 24.1409L21.3294 33.0522L24.5938 32.1783L21.9597 22.3568Z" fill="#464646"/>
<path d="M18.8177 24.1735C18.2782 24.3121 17.7127 24.3857 17.13 24.3857C16.5056 24.3857 15.9011 24.3011 15.3271 24.1428L12.9351 33.0623L16.1995 33.9361L18.8177 24.1735Z" fill="#464646"/>
<path d="M15.2117 24.1099C14.0666 23.7718 13.0481 23.139 12.2444 22.2993L5.6604 28.8775L8.05013 31.2651L15.2117 24.1099Z" fill="#464646"/>
<path d="M12.1894 22.2412C11.3994 21.3962 10.8239 20.3483 10.55 19.1844L1.45459 21.6194L2.32929 24.8809L12.1894 22.2412Z" fill="#464646"/>
</g>
<defs>
<clipPath id="clip0_7_2452">
<rect width="139.44" height="34" fill="white" transform="translate(0.306396)"/>
</clipPath>
</defs>
</svg>
