<svg width="142" height="34" viewBox="0 0 142 34" fill="none" xmlns="http://www.w3.org/2000/svg">
<g clip-path="url(#clip0_7_2435)">
<path d="M43.1973 23.334H53.1174V20.3486H46.7231V9.10376H43.1973V23.334Z" fill="#464646"/>
<path d="M58.9948 21.3437C57.5805 21.3437 56.8434 20.1097 56.8434 18.2588C56.8434 16.4079 57.5805 15.154 58.9948 15.154C60.4091 15.154 61.1661 16.4079 61.1661 18.2588C61.1661 20.1097 60.4091 21.3437 58.9948 21.3437ZM59.0147 23.6524C62.3015 23.6524 64.4529 21.3238 64.4529 18.2588C64.4529 15.1938 62.3015 12.8652 59.0147 12.8652C55.7478 12.8652 53.5566 15.1938 53.5566 18.2588C53.5566 21.3238 55.7478 23.6524 59.0147 23.6524Z" fill="#464646"/>
<path d="M70.142 26.8567C71.6559 26.8567 72.9906 26.5183 73.887 25.7222C74.7037 24.9858 75.2415 23.8713 75.2415 22.3388V13.1439H72.134V14.2385H72.0942C71.4966 13.3827 70.5802 12.8453 69.2257 12.8453C66.6958 12.8453 64.9429 14.955 64.9429 17.9404C64.9429 21.065 67.0743 22.7767 69.3651 22.7767C70.6002 22.7767 71.377 22.2791 71.9746 21.6024H72.0543V22.6174C72.0543 23.8514 71.4766 24.5679 70.1022 24.5679C69.0265 24.5679 68.4886 24.1101 68.3094 23.5728H65.162C65.4807 25.7023 67.3333 26.8567 70.142 26.8567ZM70.1221 20.3685C68.907 20.3685 68.1102 19.3733 68.1102 17.8408C68.1102 16.2885 68.907 15.2933 70.1221 15.2933C71.4766 15.2933 72.1938 16.4477 72.1938 17.8209C72.1938 19.2539 71.5364 20.3685 70.1221 20.3685Z" fill="#464646"/>
<path d="M81.631 21.3437C80.2167 21.3437 79.4797 20.1097 79.4797 18.2588C79.4797 16.4079 80.2167 15.154 81.631 15.154C83.0454 15.154 83.8023 16.4079 83.8023 18.2588C83.8023 20.1097 83.0454 21.3437 81.631 21.3437ZM81.651 23.6524C84.9378 23.6524 87.0891 21.3238 87.0891 18.2588C87.0891 15.1938 84.9378 12.8652 81.651 12.8652C78.3841 12.8652 76.1929 15.1938 76.1929 18.2588C76.1929 21.3238 78.3841 23.6524 81.651 23.6524Z" fill="#464646"/>
<path d="M88.0371 23.334H91.2841V13.144H88.0371V23.334ZM88.0371 11.7309H91.2841V9.10376H88.0371V11.7309Z" fill="#464646"/>
<path d="M92.6934 26.6974H95.9403V22.2791H95.9802C96.6176 23.1349 97.5538 23.6524 98.8686 23.6524C101.538 23.6524 103.311 21.5427 103.311 18.2389C103.311 15.1739 101.657 12.8453 98.9482 12.8453C97.5538 12.8453 96.5578 13.4623 95.8606 14.3778H95.8009V13.1439H92.6934V26.6974ZM98.0319 21.1447C96.6375 21.1447 95.8407 20.0102 95.8407 18.3583C95.8407 16.7064 96.5578 15.4526 97.9722 15.4526C99.3666 15.4526 100.024 16.6069 100.024 18.3583C100.024 20.0898 99.267 21.1447 98.0319 21.1447Z" fill="#464646"/>
<path d="M108.597 23.6524C111.266 23.6524 113.238 22.498 113.238 20.2689C113.238 17.6617 111.127 17.204 109.334 16.9054C108.039 16.6666 106.884 16.5671 106.884 15.8506C106.884 15.2137 107.501 14.9152 108.298 14.9152C109.195 14.9152 109.812 15.1938 109.932 16.1093H112.92C112.76 14.0992 111.207 12.8453 108.318 12.8453C105.908 12.8453 103.916 13.9599 103.916 16.1093C103.916 18.4976 105.808 18.9753 107.581 19.2738C108.936 19.5127 110.171 19.6122 110.171 20.5277C110.171 21.1845 109.553 21.5427 108.577 21.5427C107.501 21.5427 106.824 21.0451 106.705 20.0301H103.637C103.737 22.2791 105.609 23.6524 108.597 23.6524Z" fill="#464646"/>
<path d="M117.649 23.6324C119.063 23.6324 119.96 23.0752 120.697 22.0801H120.757V23.3339H123.864V13.1439H120.617V18.836C120.617 20.05 119.94 20.8859 118.824 20.8859C117.789 20.8859 117.291 20.2689 117.291 19.1544V13.1439H114.063V19.8311C114.063 22.1 115.299 23.6324 117.649 23.6324Z" fill="#464646"/>
<path d="M125.276 23.3339H128.523V17.6219C128.523 16.4079 129.12 15.5521 130.136 15.5521C131.112 15.5521 131.571 16.1889 131.571 17.2836V23.3339H134.818V17.6219C134.818 16.4079 135.395 15.5521 136.431 15.5521C137.407 15.5521 137.865 16.1889 137.865 17.2836V23.3339H141.112V16.7064C141.112 14.4176 139.957 12.8453 137.646 12.8453C136.332 12.8453 135.236 13.4026 134.439 14.6366H134.399C133.881 13.5419 132.865 12.8453 131.531 12.8453C130.057 12.8453 129.081 13.5419 128.443 14.5968H128.383V13.1439H125.276V23.3339Z" fill="#464646"/>
<path fill-rule="evenodd" clip-rule="evenodd" d="M17.321 33.2853C26.4889 33.2853 33.921 25.8598 33.921 16.7C33.921 7.54015 26.4889 0.114624 17.321 0.114624C8.15302 0.114624 0.720947 7.54015 0.720947 16.7C0.720947 25.8598 8.15302 33.2853 17.321 33.2853ZM22.4996 7.84078C22.7517 6.94618 21.8828 6.41717 21.0892 6.98204L10.0113 14.8669C9.15062 15.4795 9.286 16.7 10.2146 16.7H13.1317V16.6774H18.8171L14.1846 18.3105L12.1424 25.5592C11.8903 26.4538 12.7591 26.9828 13.5528 26.4179L24.6307 18.5331C25.4914 17.9205 25.3559 16.7 24.4274 16.7H20.0036L22.4996 7.84078Z" fill="#464646"/>
</g>
<defs>
<clipPath id="clip0_7_2435">
<rect width="141.1" height="34" fill="white" transform="translate(0.15332)"/>
</clipPath>
</defs>
</svg>
