<svg width="117" height="26" viewBox="0 0 117 26" fill="none" xmlns="http://www.w3.org/2000/svg">
<path d="M19.4075 12.0638C19.0929 12.38 18.8521 12.7616 18.702 13.1814C18.5519 13.6012 18.4964 14.049 18.5393 14.4927L18.5244 14.4778C18.5685 15.0001 18.498 15.5257 18.3178 16.0181C18.1376 16.5103 17.8521 16.9574 17.4812 17.3281C17.1102 17.6987 16.6627 17.984 16.1699 18.164C15.6772 18.344 15.1511 18.4145 14.6284 18.3704L14.6433 18.3853C14.018 18.3272 13.3899 18.4631 12.8447 18.7746C12.2995 19.0862 11.8638 19.5581 11.597 20.1262C11.3301 20.6942 11.245 21.3306 11.3534 21.9487C11.4619 22.5668 11.7585 23.1364 12.2028 23.5799C12.6471 24.0234 13.2174 24.3192 13.8361 24.4269C14.4549 24.5347 15.0918 24.4491 15.6601 24.182C16.2284 23.9148 16.7003 23.4791 17.0116 22.9342C17.323 22.3892 17.4585 21.7616 17.3997 21.1368L17.4155 21.1517C17.3714 20.6295 17.4418 20.1038 17.622 19.6114C17.8022 19.1192 18.0878 18.6721 18.4587 18.3014C18.8297 17.9308 19.2772 17.6455 19.7699 17.4655C20.2627 17.2855 20.7887 17.215 21.3115 17.2591L21.2958 17.2442C21.8065 17.2901 22.3207 17.2064 22.7906 17.0009C23.2604 16.7954 23.6707 16.4747 23.9835 16.0686C24.2962 15.6625 24.5014 15.1841 24.5797 14.6777C24.6582 14.1713 24.6074 13.6533 24.4321 13.1717C24.2568 12.6901 23.9626 12.2606 23.5769 11.9228C23.1912 11.585 22.7264 11.35 22.2256 11.2396C21.7248 11.1291 21.2041 11.1467 20.7119 11.2907C20.2198 11.4349 19.772 11.7007 19.41 12.0638H19.4075Z" fill="#464646"/>
<path d="M13.2844 16.4298L13.2687 16.4149C13.713 16.4596 14.1617 16.4051 14.5824 16.2554C15.003 16.1056 15.3852 15.8644 15.7011 15.549C16.0169 15.2336 16.2587 14.852 16.4089 14.4318C16.5591 14.0116 16.614 13.5634 16.5696 13.1194L16.5854 13.1343C16.5412 12.612 16.6117 12.0864 16.7919 11.594C16.9721 11.1018 17.2577 10.6547 17.6286 10.284C17.9996 9.91345 18.447 9.6281 18.9397 9.44814C19.4325 9.26808 19.9586 9.19765 20.4814 9.24174L20.4656 9.22681C21.091 9.28552 21.7192 9.14999 22.2647 8.8388C22.8103 8.52761 23.2464 8.05586 23.5136 7.48792C23.7809 6.91999 23.8663 6.2835 23.7582 5.66527C23.6502 5.04704 23.3538 4.47719 22.9096 4.03341C22.4655 3.58965 21.8951 3.29356 21.2764 3.18558C20.6576 3.07758 20.0206 3.16292 19.4521 3.42996C18.8836 3.69699 18.4115 4.13273 18.1 4.67774C17.7885 5.22273 17.6529 5.85046 17.7117 6.4753L17.6967 6.45954C17.741 6.98189 17.6706 7.5076 17.4905 7.99995C17.3104 8.4923 17.0248 8.93944 16.6538 9.31015C16.2828 9.68075 15.8353 9.9661 15.3425 10.1461C14.8497 10.326 14.3235 10.3963 13.8007 10.3521L13.8156 10.3679C13.3713 10.3232 12.9226 10.3777 12.5019 10.5274C12.0813 10.6771 11.6991 10.9184 11.3832 11.2338C11.0673 11.5492 10.8256 11.9308 10.6753 12.351C10.5252 12.7712 10.4703 13.2194 10.5147 13.6634L10.4998 13.6485C10.5438 14.1707 10.4731 14.6963 10.2929 15.1886C10.1127 15.6808 9.82715 16.1278 9.45622 16.4984C9.08526 16.869 8.63786 17.1543 8.1452 17.3344C7.65255 17.5144 7.1265 17.585 6.60376 17.5411L6.6187 17.556C5.99331 17.4973 5.36502 17.6328 4.81954 17.944C4.27406 18.2552 3.83794 18.7269 3.57067 19.2949C3.30339 19.8628 3.21797 20.4993 3.32606 21.1175C3.43415 21.7357 3.73049 22.3056 4.17465 22.7494C4.61882 23.1932 5.18918 23.4892 5.80795 23.5972C6.42673 23.7052 7.06378 23.6198 7.63222 23.3528C8.20065 23.0858 8.67282 22.6501 8.98428 22.1051C9.29578 21.56 9.43141 20.9323 9.37264 20.3075L9.38841 20.3224C9.34426 19.8001 9.41481 19.2745 9.595 18.7821C9.77511 18.2899 10.0607 17.8428 10.4316 17.4721C10.8027 17.1015 11.2501 16.8162 11.7428 16.6362C12.2356 16.4562 12.7616 16.3857 13.2844 16.4298Z" fill="#464646"/>
<path d="M7.72185 14.7655C8.03643 14.4494 8.27728 14.0677 8.42722 13.6479C8.57715 13.228 8.63246 12.7802 8.5892 12.3366L8.60496 12.3515C8.5608 11.829 8.63132 11.3032 8.8116 10.8108C8.99189 10.3184 9.2776 9.87122 9.64878 9.50054C10.02 9.12988 10.4676 8.84462 10.9605 8.66471C11.4534 8.48479 11.9798 8.41455 12.5027 8.4589L12.4869 8.44397C13.112 8.50249 13.7401 8.36692 14.2853 8.05574C14.8306 7.74458 15.2664 7.27295 15.5336 6.70519C15.8007 6.13742 15.886 5.50116 15.7779 4.88317C15.6699 4.26517 15.3735 3.69553 14.9296 3.25192C14.4856 2.80831 13.9154 2.51233 13.2969 2.40434C12.6784 2.29635 12.0415 2.38161 11.4733 2.64849C10.905 2.91536 10.433 3.35087 10.1215 3.89562C9.81005 4.44036 9.67434 5.06784 9.73294 5.69246L9.718 5.67753C9.76216 6.19985 9.69161 6.7255 9.51141 7.21778C9.33122 7.71007 9.04572 8.15714 8.67474 8.52779C8.30377 8.89844 7.8563 9.18373 7.36358 9.36371C6.87085 9.54375 6.34475 9.61424 5.82197 9.57012L5.83691 9.58504C5.32611 9.53927 4.81199 9.62311 4.34223 9.82868C3.87247 10.0343 3.46224 10.355 3.14957 10.7612C2.8369 11.1673 2.63191 11.6458 2.55357 12.1521C2.47524 12.6586 2.52611 13.1765 2.70147 13.658C2.87682 14.1396 3.171 14.569 3.55673 14.9067C3.94245 15.2445 4.40725 15.4794 4.90806 15.5899C5.40886 15.7002 5.92946 15.6826 6.42162 15.5385C6.91378 15.3944 7.36157 15.1285 7.7235 14.7655H7.72185Z" fill="#464646"/>
<path d="M33.4326 6.49438H35.8977V18.4798H33.4326V6.49438Z" fill="#464646"/>
<path d="M37.2938 14.3757C37.2904 13.5144 37.5429 12.6714 38.0193 11.9536C38.4957 11.2358 39.1747 10.6754 39.9702 10.3434C40.7656 10.0114 41.6418 9.92271 42.4877 10.0886C43.3337 10.2546 44.1113 10.6676 44.7221 11.2754C45.3329 11.8832 45.7494 12.6585 45.9189 13.503C46.0883 14.3475 46.0031 15.2233 45.674 16.0194C45.3449 16.8154 44.7867 17.4961 44.0702 17.9749C43.3536 18.4538 42.511 18.7095 41.6488 18.7095C41.0766 18.716 40.5088 18.6085 39.9786 18.3932C39.4484 18.1779 38.9665 17.8592 38.5611 17.4558C38.1555 17.0523 37.8346 16.572 37.6171 16.0432C37.3995 15.5144 37.2896 14.9475 37.2938 14.3757ZM43.5387 14.3757C43.5285 14.0045 43.4089 13.6445 43.195 13.3407C42.981 13.037 42.6822 12.803 42.3359 12.6681C41.9896 12.5331 41.6112 12.5031 41.2479 12.5818C40.8846 12.6606 40.5526 12.8446 40.2934 13.1108C40.0342 13.377 39.8593 13.7137 39.7906 14.0788C39.7219 14.4437 39.7623 14.8209 39.907 15.163C40.0517 15.5052 40.294 15.7971 40.6038 16.0023C40.9136 16.2076 41.2772 16.317 41.6488 16.317C41.9034 16.3238 42.1566 16.2778 42.3926 16.1819C42.6285 16.0861 42.842 15.9425 43.0195 15.7601C43.197 15.5777 43.3349 15.3605 43.4242 15.1222C43.5136 14.884 43.5526 14.6298 43.5387 14.3757Z" fill="#464646"/>
<path d="M55.8288 10.2708V18.066C55.8288 20.8241 53.6757 21.9901 51.4903 21.9901C50.7209 22.0476 49.9504 21.8923 49.2635 21.5413C48.5765 21.1901 47.9996 20.6568 47.596 19.9998L49.6992 18.7849C49.8689 19.1274 50.1392 19.41 50.4739 19.5948C50.8087 19.7796 51.192 19.8578 51.5725 19.819C51.8157 19.8527 52.0634 19.8313 52.2972 19.7564C52.5309 19.6815 52.7449 19.5551 52.9232 19.3865C53.1015 19.2178 53.2395 19.0113 53.3271 18.7821C53.4147 18.553 53.4496 18.3071 53.4292 18.0626V17.3122C53.1406 17.665 52.7732 17.9454 52.3565 18.1307C51.9397 18.3161 51.4854 18.4012 51.0297 18.3794C49.9455 18.3453 48.9173 17.891 48.1625 17.1126C47.4077 16.3344 46.9856 15.2931 46.9856 14.2095C46.9856 13.1258 47.4077 12.0845 48.1625 11.3063C48.9173 10.5279 49.9455 10.0736 51.0297 10.0395C51.4854 10.0177 51.9397 10.1028 52.3565 10.2882C52.7732 10.4735 53.1406 10.7539 53.4292 11.1067V10.2692L55.8288 10.2708ZM53.4301 14.2107C53.4467 13.8138 53.3439 13.421 53.1352 13.0829C52.9264 12.7447 52.6211 12.4768 52.2587 12.3135C51.8962 12.1501 51.4932 12.099 51.1013 12.1665C50.7095 12.234 50.3469 12.4171 50.06 12.6923C49.7732 12.9675 49.5755 13.3221 49.492 13.7105C49.4087 14.0989 49.4436 14.5034 49.5923 14.8719C49.741 15.2403 49.9966 15.5559 50.3263 15.778C50.6559 16.0001 51.0446 16.1185 51.4422 16.118C51.7012 16.1361 51.9611 16.0998 52.2052 16.0114C52.4493 15.923 52.6722 15.7844 52.8594 15.6048C53.0467 15.4251 53.1943 15.2082 53.2925 14.9681C53.3908 14.728 53.4377 14.47 53.4301 14.2107Z" fill="#464646"/>
<path d="M57.225 14.3757C57.2216 13.5144 57.474 12.6714 57.9505 11.9536C58.4269 11.2358 59.1058 10.6754 59.9013 10.3434C60.6968 10.0114 61.5729 9.92271 62.4189 10.0886C63.2648 10.2546 64.0424 10.6676 64.6532 11.2754C65.264 11.8832 65.6805 12.6585 65.85 13.503C66.0195 14.3475 65.9343 15.2233 65.6052 16.0194C65.2761 16.8154 64.7179 17.4961 64.0014 17.9749C63.2847 18.4538 62.4421 18.7095 61.58 18.7095C61.0078 18.716 60.4399 18.6085 59.9098 18.3932C59.3796 18.1779 58.8977 17.8592 58.4922 17.4558C58.0867 17.0523 57.7658 16.572 57.5483 16.0432C57.3306 15.5144 57.2207 14.9475 57.225 14.3757ZM63.4699 14.3757C63.4596 14.0045 63.34 13.6445 63.1261 13.3407C62.9121 13.037 62.6133 12.803 62.2671 12.6681C61.9207 12.5331 61.5422 12.5031 61.179 12.5818C60.8157 12.6606 60.4837 12.8446 60.2245 13.1108C59.9654 13.377 59.7904 13.7137 59.7217 14.0788C59.653 14.4437 59.6935 14.8209 59.8381 15.163C59.9828 15.5052 60.2252 15.7971 60.5349 16.0023C60.8448 16.2076 61.2082 16.317 61.58 16.317C61.8345 16.3238 62.0878 16.2778 62.3237 16.1819C62.5596 16.0861 62.7731 15.9425 62.9507 15.7601C63.1282 15.5777 63.266 15.3605 63.3554 15.1222C63.4447 14.884 63.4838 14.6298 63.4699 14.3757Z" fill="#464646"/>
<path d="M67.0845 8.07084C67.0845 7.77856 67.1712 7.49285 67.3337 7.24984C67.4962 7.00683 67.7273 6.81741 67.9976 6.70557C68.2678 6.59372 68.5652 6.56445 68.8521 6.62147C69.139 6.67849 69.4026 6.81924 69.6094 7.02591C69.8163 7.23257 69.9571 7.49588 70.0142 7.78254C70.0712 8.06919 70.0419 8.36632 69.93 8.63635C69.8181 8.90637 69.6285 9.13717 69.3852 9.29956C69.142 9.46193 68.8561 9.54859 68.5635 9.54859C68.1725 9.54469 67.7985 9.3878 67.522 9.11147C67.2455 8.83517 67.0884 8.46155 67.0845 8.07084ZM67.3335 10.2709H69.7994V18.4806H67.3302L67.3335 10.2709Z" fill="#464646"/>
<path d="M80.4431 14.3758C80.4716 14.9184 80.3925 15.4612 80.2102 15.9731C80.028 16.485 79.7463 16.9559 79.3813 17.3587C79.0164 17.7613 78.5752 18.0881 78.0834 18.3199C77.5916 18.5517 77.0588 18.6842 76.5156 18.7095C76.0587 18.7344 75.6021 18.6575 75.1788 18.4842C74.7554 18.3109 74.376 18.0457 74.0679 17.7078V21.7637H71.6028V10.2709H74.0679V11.0421C74.3761 10.7044 74.7556 10.4394 75.1789 10.2663C75.6023 10.0932 76.0588 10.0163 76.5156 10.0412C77.0589 10.0665 77.5918 10.1988 78.0838 10.4307C78.5757 10.6626 79.0169 10.9893 79.3819 11.3922C79.7469 11.795 80.0286 12.266 80.2107 12.7781C80.3928 13.2901 80.4718 13.8331 80.4431 14.3758ZM77.978 14.3758C77.9684 13.9916 77.8456 13.6187 77.6249 13.3039C77.4042 12.9891 77.0955 12.7463 76.7374 12.606C76.3793 12.4656 75.9877 12.4338 75.6116 12.5147C75.2355 12.5956 74.8917 12.7855 74.6232 13.0606C74.3546 13.3359 74.1732 13.684 74.1018 14.0617C74.0303 14.4394 74.0719 14.8296 74.2214 15.1838C74.3708 15.538 74.6215 15.8402 74.942 16.0527C75.2626 16.2652 75.6387 16.3785 76.0234 16.3785C76.2875 16.3902 76.5511 16.346 76.7969 16.2488C77.0427 16.1517 77.2652 16.0037 77.4497 15.8146C77.6343 15.6255 77.7768 15.3996 77.8678 15.1516C77.9589 14.9037 77.9964 14.6392 77.978 14.3758Z" fill="#464646"/>
<path d="M88.0503 16.0169C88.0503 17.9051 86.4077 18.7095 84.6332 18.7095C83.916 18.7744 83.1962 18.6229 82.5663 18.2746C81.9364 17.9263 81.4256 17.3972 81.0999 16.7557L83.2354 15.5409C83.3218 15.8373 83.5074 16.0953 83.7612 16.2715C84.0148 16.4478 84.3219 16.5318 84.6298 16.5095C85.2208 16.5095 85.5171 16.3287 85.5171 16.0011C85.5171 15.0972 81.4742 15.574 81.4742 12.7338C81.4742 10.9434 82.9864 10.0412 84.6954 10.0412C85.3378 10.0208 85.9736 10.1731 86.5372 10.482C87.1008 10.791 87.5714 11.2453 87.8992 11.7976L85.796 12.9303C85.7039 12.7153 85.5503 12.5321 85.3544 12.4037C85.1586 12.2752 84.9295 12.2072 84.6954 12.208C84.268 12.208 84.0049 12.3739 84.0049 12.6675C84.0082 13.6037 88.0503 12.9793 88.0503 16.0169Z" fill="#464646"/>
<path d="M97.0549 10.2709V18.4806H94.5898V17.7086C94.3051 18.0492 93.9441 18.3177 93.5357 18.4918C93.1274 18.666 92.6841 18.7409 92.2409 18.7103C90.5809 18.7103 89.1699 17.5286 89.1699 15.3103V10.2709H91.635V14.9496C91.6143 15.1451 91.6367 15.3428 91.7006 15.5288C91.7637 15.7149 91.8674 15.8849 92.0035 16.027C92.1397 16.169 92.3048 16.2798 92.4883 16.3515C92.6709 16.4232 92.8676 16.4542 93.0643 16.4423C93.9682 16.4423 94.5923 15.9174 94.5923 14.7514V10.2734L97.0549 10.2709Z" fill="#464646"/>
<path d="M111.19 13.4395V18.4798H108.725V13.6526C108.725 12.8316 108.33 12.3067 107.542 12.3067C106.72 12.3067 106.259 12.8814 106.259 13.85V18.4798H103.795V13.6526C103.795 12.8316 103.401 12.3067 102.612 12.3067C101.79 12.3067 101.33 12.8814 101.33 13.85V18.4798H98.865V10.27H101.33V11.0247C101.586 10.6899 101.921 10.4244 102.305 10.2525C102.69 10.0805 103.112 10.0076 103.532 10.0403C103.954 10.0197 104.374 10.1087 104.751 10.2985C105.128 10.4882 105.449 10.7725 105.684 11.1233C105.957 10.7562 106.319 10.4643 106.736 10.2749C107.153 10.0855 107.611 10.0048 108.067 10.0403C109.954 10.0412 111.19 11.3871 111.19 13.4395Z" fill="#464646"/>
<path d="M113.275 10.2203C114.285 10.2203 115.104 9.40197 115.104 8.39259C115.104 7.38317 114.285 6.56488 113.275 6.56488C112.265 6.56488 111.446 7.38317 111.446 8.39259C111.446 9.40197 112.265 10.2203 113.275 10.2203Z" fill="#464646"/>
</svg>
