<svg width="142" height="34" viewBox="0 0 142 34" fill="none" xmlns="http://www.w3.org/2000/svg">
<path d="M42.5605 24.3168H52.4807V21.3314H46.0864V10.0865H42.5605V24.3168Z" fill="#464646"/>
<path d="M58.3578 22.3266C56.9435 22.3266 56.2065 21.0926 56.2065 19.2417C56.2065 17.3908 56.9435 16.1369 58.3578 16.1369C59.7722 16.1369 60.5291 17.3908 60.5291 19.2417C60.5291 21.0926 59.7722 22.3266 58.3578 22.3266ZM58.3778 24.6353C61.6646 24.6353 63.8159 22.3067 63.8159 19.2417C63.8159 16.1767 61.6646 13.8481 58.3778 13.8481C55.1109 13.8481 52.9197 16.1767 52.9197 19.2417C52.9197 22.3067 55.1109 24.6353 58.3778 24.6353Z" fill="#464646"/>
<path d="M69.5053 27.8395C71.0192 27.8395 72.3538 27.5012 73.2502 26.7051C74.067 25.9687 74.6048 24.8541 74.6048 23.3216V14.1267H71.4973V15.2214H71.4574C70.8598 14.3656 69.9435 13.8282 68.589 13.8282C66.0591 13.8282 64.3062 15.9378 64.3062 18.9232C64.3062 22.0479 66.4376 23.7595 68.7284 23.7595C69.9634 23.7595 70.7403 23.2619 71.3379 22.5853H71.4176V23.6003C71.4176 24.8342 70.8399 25.5507 69.4654 25.5507C68.3898 25.5507 67.8519 25.093 67.6726 24.5556H64.5253C64.844 26.6852 66.6966 27.8395 69.5053 27.8395ZM69.4854 21.3513C68.2702 21.3513 67.4734 20.3562 67.4734 18.8237C67.4734 17.2713 68.2702 16.2762 69.4854 16.2762C70.8399 16.2762 71.557 17.4305 71.557 18.8038C71.557 20.2368 70.8997 21.3513 69.4854 21.3513Z" fill="#464646"/>
<path d="M80.9943 22.3266C79.58 22.3266 78.843 21.0926 78.843 19.2417C78.843 17.3908 79.58 16.1369 80.9943 16.1369C82.4086 16.1369 83.1653 17.3908 83.1653 19.2417C83.1653 21.0926 82.4086 22.3266 80.9943 22.3266ZM81.0142 24.6353C84.3007 24.6353 86.4521 22.3067 86.4521 19.2417C86.4521 16.1767 84.3007 13.8481 81.0142 13.8481C77.7474 13.8481 75.5562 16.1767 75.5562 19.2417C75.5562 22.3067 77.7474 24.6353 81.0142 24.6353Z" fill="#464646"/>
<path d="M87.4009 24.3168H90.6478V14.1267H87.4009V24.3168ZM87.4009 12.7137H90.6478V10.0865H87.4009V12.7137Z" fill="#464646"/>
<path d="M92.0562 27.6803H95.3031V23.2619H95.343C95.9804 24.1177 96.9166 24.6352 98.2314 24.6352C100.901 24.6352 102.674 22.5256 102.674 19.2217C102.674 16.1568 101.02 13.8282 98.311 13.8282C96.9166 13.8282 95.9206 14.4452 95.2234 15.3607H95.1637V14.1267H92.0562V27.6803ZM97.3947 22.1275C96.0003 22.1275 95.2035 20.9931 95.2035 19.3412C95.2035 17.6893 95.9206 16.4354 97.335 16.4354C98.7294 16.4354 99.3867 17.5897 99.3867 19.3412C99.3867 21.0727 98.6298 22.1275 97.3947 22.1275Z" fill="#464646"/>
<path d="M107.96 24.6352C110.629 24.6352 112.601 23.4809 112.601 21.2518C112.601 18.6446 110.49 18.1868 108.697 17.8883C107.402 17.6495 106.247 17.5499 106.247 16.8335C106.247 16.1966 106.864 15.898 107.661 15.898C108.557 15.898 109.175 16.1767 109.294 17.0922H112.282C112.123 15.082 110.569 13.8282 107.681 13.8282C105.271 13.8282 103.279 14.9427 103.279 17.0922C103.279 19.4805 105.171 19.9581 106.944 20.2567C108.298 20.4955 109.534 20.595 109.534 21.5105C109.534 22.1673 108.916 22.5256 107.94 22.5256C106.864 22.5256 106.187 22.028 106.067 21.013H103C103.099 23.2619 104.972 24.6352 107.96 24.6352Z" fill="#464646"/>
<path d="M117.012 24.6154C118.426 24.6154 119.323 24.0581 120.06 23.063H120.119V24.3168H123.227V14.1268H119.98V19.8189C119.98 21.0329 119.303 21.8688 118.187 21.8688C117.151 21.8688 116.653 21.2518 116.653 20.1373V14.1268H113.426V20.814C113.426 23.0829 114.661 24.6154 117.012 24.6154Z" fill="#464646"/>
<path d="M124.64 24.3168H127.887V18.6048C127.887 17.3907 128.484 16.5349 129.5 16.5349C130.476 16.5349 130.934 17.1718 130.934 18.2664V24.3168H134.181V18.6048C134.181 17.3907 134.759 16.5349 135.795 16.5349C136.771 16.5349 137.229 17.1718 137.229 18.2664V24.3168H140.476V17.6893C140.476 15.4005 139.321 13.8282 137.01 13.8282C135.695 13.8282 134.6 14.3855 133.803 15.6194H133.763C133.245 14.5248 132.229 13.8282 130.895 13.8282C129.42 13.8282 128.444 14.5248 127.807 15.5796H127.747V14.1267H124.64V24.3168Z" fill="#464646"/>
<path fill-rule="evenodd" clip-rule="evenodd" d="M16.684 33.4388C25.852 33.4388 33.284 26.0132 33.284 16.8534C33.284 7.69358 25.852 0.268066 16.684 0.268066C7.51606 0.268066 0.0839844 7.69358 0.0839844 16.8534C0.0839844 26.0132 7.51606 33.4388 16.684 33.4388ZM19.2462 13.0824C20.6612 11.6686 20.6612 9.37638 19.2462 7.96256C17.8311 6.54876 15.5369 6.54876 14.1218 7.96256C12.7069 9.37638 12.7069 11.6686 14.1218 13.0824L16.684 15.6423L19.2462 13.0824ZM20.4584 19.4133C21.8735 20.8272 24.1677 20.8272 25.5828 19.4133C26.9977 17.9995 26.9977 15.7073 25.5828 14.2935C24.1677 12.8798 21.8735 12.8798 20.4584 14.2935L17.8963 16.8535L20.4584 19.4133ZM19.2462 25.7443C20.6612 24.3305 20.6612 22.0383 19.2462 20.6245L16.684 18.0646L14.1218 20.6245C12.7069 22.0383 12.7069 24.3305 14.1218 25.7443C15.5369 27.1581 17.8311 27.1581 19.2462 25.7443ZM7.78526 19.4133C6.37024 17.9995 6.37024 15.7073 7.78526 14.2935C9.20035 12.8798 11.4946 12.8798 12.9096 14.2935L15.4718 16.8535L12.9096 19.4133C11.4946 20.8272 9.20035 20.8272 7.78526 19.4133Z" fill="#464646"/>
</svg>
